<svg xmlns="http://www.w3.org/2000/svg" width="15" height="15" viewBox="0 0 15 15" fill="none">
<path d="M12.5 0.307617H2.5C1.375 0.307617 0.5 1.21387 0.5 2.30762V12.3076C0.5 13.4326 1.375 14.3076 2.5 14.3076H12.5C13.5938 14.3076 14.5 13.4326 14.5 12.3076V2.30762C14.5 1.21387 13.5938 0.307617 12.5 0.307617ZM7.5 3.30762C8.71875 3.30762 9.75 4.33887 9.75 5.55762C9.75 6.80762 8.71875 7.80762 7.5 7.80762C6.25 7.80762 5.25 6.80762 5.25 5.55762C5.25 4.33887 6.25 3.30762 7.5 3.30762ZM3.03125 12.3076C3.28125 10.6201 4.71875 9.30762 6.5 9.30762H8.5C10.25 9.30762 11.6875 10.6201 11.9375 12.3076H3.03125Z" fill="#A8A8A8"/>
</svg>