<svg xmlns="http://www.w3.org/2000/svg" width="17" height="19" viewBox="0 0 17 19" fill="none">
<path d="M9.625 1.25586V1.95898C12.1914 2.48633 14.125 4.73633 14.125 7.44336V8.11133C14.125 9.76367 14.7227 11.3809 15.8125 12.6113L16.0586 12.8926C16.375 13.2441 16.4453 13.7012 16.2695 14.123C16.0938 14.5098 15.6719 14.7559 15.25 14.7559H1.75C1.29297 14.7559 0.871094 14.5098 0.695312 14.123C0.519531 13.7012 0.589844 13.2441 0.90625 12.8926L1.15234 12.6113C2.24219 11.3809 2.875 9.76367 2.875 8.11133V7.44336C2.875 4.73633 4.77344 2.48633 7.375 1.95898V1.25586C7.375 0.658203 7.86719 0.130859 8.5 0.130859C9.09766 0.130859 9.625 0.658203 9.625 1.25586ZM8.5 18.1309C7.90234 18.1309 7.30469 17.9199 6.88281 17.498C6.46094 17.0762 6.25 16.4785 6.25 15.8809H10.75C10.75 16.4785 10.5039 17.0762 10.082 17.498C9.66016 17.9199 9.0625 18.1309 8.5 18.1309Z" fill="white"/>
</svg>