<svg xmlns="http://www.w3.org/2000/svg" width="22" height="15" viewBox="0 0 22 15" fill="none">
<path d="M18.875 0.576904C20.1055 0.576904 21.125 1.59644 21.125 2.8269V11.8269C21.125 13.0925 20.1055 14.0769 18.875 14.0769H3.125C1.85938 14.0769 0.875 13.0925 0.875 11.8269V2.8269C0.875 1.59644 1.85938 0.576904 3.125 0.576904H18.875ZM5.375 11.8269C5.375 10.5964 4.35547 9.5769 3.125 9.5769V11.8269H5.375ZM3.125 5.0769C4.35547 5.0769 5.375 4.09253 5.375 2.8269H3.125V5.0769ZM18.875 11.8269V9.5769C17.6094 9.5769 16.625 10.5964 16.625 11.8269H18.875ZM18.875 2.8269H16.625C16.625 4.09253 17.6094 5.0769 18.875 5.0769V2.8269ZM11 10.7019C12.8633 10.7019 14.375 9.19019 14.375 7.3269C14.375 5.46362 12.8633 3.9519 11 3.9519C9.10156 3.9519 7.625 5.46362 7.625 7.3269C7.625 9.19019 9.10156 10.7019 11 10.7019Z" fill="#DDDDDD"/>
</svg>