<svg xmlns="http://www.w3.org/2000/svg" width="28" height="29" viewBox="0 0 28 29" fill="none">
<path d="M13.2891 19.0938C12.6875 19.6953 11.7578 19.6953 11.1562 19.0938L7.65625 15.5938C7.05469 14.9922 7.05469 14.0625 7.65625 13.4609C8.25781 12.8594 9.1875 12.8594 9.78906 13.4609L12.25 15.8672L18.1562 9.96094C18.7578 9.35938 19.6875 9.35938 20.2891 9.96094C20.8906 10.5625 20.8906 11.4922 20.2891 12.0938L13.2891 19.0938ZM28 14.5C28 22.2656 21.7109 28.5 14 28.5C6.23438 28.5 0 22.2656 0 14.5C0 6.78906 6.23438 0.5 14 0.5C21.7109 0.5 28 6.78906 28 14.5ZM14 3.125C7.71094 3.125 2.625 8.26562 2.625 14.5C2.625 20.7891 7.71094 25.875 14 25.875C20.2344 25.875 25.375 20.7891 25.375 14.5C25.375 8.26562 20.2344 3.125 14 3.125Z" fill="#FF3030"/>
</svg>