<svg xmlns="http://www.w3.org/2000/svg" width="21" height="16" viewBox="0 0 21 16" fill="none">
<path d="M5.72241 4.05664C7.47241 2.30664 10.3474 2.30664 12.0974 4.05664C13.6599 5.61914 13.8787 8.08789 12.5974 9.90039L12.5662 9.93164C12.2537 10.4004 11.6287 10.4941 11.1599 10.1816C10.7224 9.83789 10.5974 9.21289 10.9412 8.77539L10.9724 8.74414C11.6912 7.71289 11.5662 6.36914 10.6912 5.49414C9.72241 4.49414 8.12866 4.49414 7.12866 5.49414L3.62866 8.99414C2.62866 9.96289 2.62866 11.5566 3.62866 12.5566C4.50366 13.4316 5.87866 13.5254 6.87866 12.8379L6.90991 12.7754C7.37866 12.4629 8.00366 12.5566 8.31616 13.0254C8.62866 13.4629 8.53491 14.0879 8.09741 14.4316L8.03491 14.4629C6.22241 15.7441 3.78491 15.5254 2.22241 13.9629C0.441162 12.2129 0.441162 9.33789 2.22241 7.58789L5.72241 4.05664ZM14.9412 11.8066C13.1912 13.5879 10.3162 13.5879 8.56616 11.8066C7.00366 10.2441 6.78491 7.80664 8.06616 5.99414L8.09741 5.96289C8.40991 5.49414 9.03491 5.40039 9.50366 5.71289C9.94116 6.02539 10.0662 6.65039 9.72241 7.11914L9.69116 7.15039C8.97241 8.15039 9.09741 9.52539 9.97241 10.4004C10.9412 11.4004 12.5349 11.4004 13.5349 10.4004L17.0349 6.90039C18.0349 5.90039 18.0349 4.30664 17.0349 3.33789C16.1599 2.46289 14.7849 2.33789 13.7849 3.05664L13.7537 3.08789C13.2849 3.43164 12.6599 3.30664 12.3474 2.86914C12.0349 2.43164 12.1287 1.80664 12.5662 1.46289L12.6287 1.43164C14.4412 0.150391 16.8787 0.369141 18.4412 1.93164C20.2224 3.68164 20.2224 6.55664 18.4412 8.30664L14.9412 11.8066Z" fill="#A8A8A8"/>
</svg>