<svg xmlns="http://www.w3.org/2000/svg" width="18" height="19" viewBox="0 0 18 19" fill="none">
<path d="M9 18.5059C4.00781 18.5059 0 14.498 0 9.50586C0 4.54883 4.00781 0.505859 9 0.505859C13.957 0.505859 18 4.54883 18 9.50586C18 14.498 13.957 18.5059 9 18.5059ZM8.15625 9.50586C8.15625 9.78711 8.29688 10.0684 8.50781 10.209L11.8828 12.459C12.2695 12.7402 12.7969 12.6348 13.043 12.248C13.3242 11.8613 13.2188 11.334 12.832 11.0527L9.84375 9.08398V4.72461C9.84375 4.26758 9.45703 3.88086 8.96484 3.88086C8.50781 3.88086 8.12109 4.26758 8.12109 4.72461L8.15625 9.50586Z" fill="white"/>
</svg>