<svg xmlns="http://www.w3.org/2000/svg" width="17" height="17" viewBox="0 0 17 17" fill="none">
<path d="M2.12512 15.0479H9.12512C9.37512 15.0479 9.62512 14.8291 9.62512 14.5479V12.5479H11.1251V14.5479C11.1251 15.6729 10.2189 16.5479 9.12512 16.5479H2.12512C1.00012 16.5479 0.125122 15.6729 0.125122 14.5479V7.54785C0.125122 6.4541 1.00012 5.54785 2.12512 5.54785H4.12512V7.04785H2.12512C1.84387 7.04785 1.62512 7.29785 1.62512 7.54785V14.5479C1.62512 14.8291 1.84387 15.0479 2.12512 15.0479ZM5.12512 2.54785C5.12512 1.4541 6.00012 0.547852 7.12512 0.547852H14.1251C15.2189 0.547852 16.1251 1.4541 16.1251 2.54785V9.54785C16.1251 10.6729 15.2189 11.5479 14.1251 11.5479H7.12512C6.00012 11.5479 5.12512 10.6729 5.12512 9.54785V2.54785ZM7.12512 10.0479H14.1251C14.3751 10.0479 14.6251 9.8291 14.6251 9.54785V2.54785C14.6251 2.29785 14.3751 2.04785 14.1251 2.04785H7.12512C6.84387 2.04785 6.62512 2.29785 6.62512 2.54785V9.54785C6.62512 9.8291 6.84387 10.0479 7.12512 10.0479Z" fill="#A8A8A8"/>
</svg>