<svg xmlns="http://www.w3.org/2000/svg" width="18" height="19" viewBox="0 0 18 19" fill="none">
<path d="M10.0391 4.5H8.00781C6.52344 4.5 5.3125 5.71094 5.3125 7.23438C5.3125 7.74219 5.74219 8.17188 6.25 8.17188C6.75781 8.17188 7.1875 7.74219 7.1875 7.23438C7.1875 6.76562 7.53906 6.375 8.00781 6.375H10.0391C10.5078 6.375 10.9375 6.76562 10.9375 7.23438C10.9375 7.54688 10.7812 7.82031 10.5078 7.97656L8.28125 9.30469C7.96875 9.5 7.8125 9.8125 7.8125 10.125V10.75C7.8125 11.2578 8.24219 11.6875 8.75 11.6875C9.25781 11.6875 9.6875 11.2578 9.6875 10.75V10.6719L11.4453 9.57812C12.3047 9.07031 12.8125 8.17188 12.8125 7.23438C12.8125 5.71094 11.6016 4.5 10.0391 4.5ZM8.75 12.625C8.04688 12.625 7.5 13.1719 7.5 13.875C7.5 14.5781 8.00781 15.125 8.75 15.125C9.41406 15.125 10 14.5781 10 13.875C10 13.1719 9.41406 12.625 8.75 12.625ZM15 0.75H2.5C1.09375 0.75 0 1.88281 0 3.25V15.75C0 17.1562 1.09375 18.25 2.5 18.25H15C16.3672 18.25 17.5 17.1562 17.5 15.75V3.25C17.5 1.88281 16.3672 0.75 15 0.75ZM15.625 15.75C15.625 16.1016 15.3125 16.375 15 16.375H2.5C2.14844 16.375 1.875 16.1016 1.875 15.75V3.25C1.875 2.9375 2.14844 2.625 2.5 2.625H15C15.3125 2.625 15.625 2.9375 15.625 3.25V15.75Z" fill="#3A4067"/>
</svg>