<svg xmlns="http://www.w3.org/2000/svg" width="23" height="17" viewBox="0 0 23 17" fill="none">
<path d="M6.71875 2.22461C6.71875 3.31445 5.80469 4.19336 4.75 4.19336C3.66016 4.19336 2.78125 3.31445 2.78125 2.22461C2.78125 1.16992 3.66016 0.255859 4.75 0.255859C5.80469 0.255859 6.71875 1.16992 6.71875 2.22461ZM7.5625 6.05664C6.50781 6.9707 5.875 8.3418 5.875 9.81836C5.875 11.0488 6.26172 12.1387 7 13.0176V13.7559C7 14.3887 6.47266 14.8809 5.875 14.8809H3.625C2.99219 14.8809 2.5 14.3887 2.5 13.7559V12.8418C1.16406 12.209 0.25 10.8379 0.25 9.25586C0.25 7.11133 2.00781 5.31836 4.1875 5.31836H5.3125C6.12109 5.31836 6.92969 5.59961 7.5625 6.05664ZM2.5 7.7793C2.14844 8.16602 1.9375 8.69336 1.9375 9.25586C1.9375 9.85352 2.14844 10.3809 2.5 10.7676V7.7793ZM16 13.7559V13.0176C16.7031 12.1387 17.125 11.0488 17.125 9.81836C17.125 8.3418 16.457 6.9707 15.4023 6.05664C16.0352 5.59961 16.8438 5.31836 17.6875 5.31836H18.8125C20.957 5.31836 22.75 7.11133 22.75 9.25586C22.75 10.8379 21.8008 12.209 20.5 12.8418V13.7559C20.5 14.3887 19.9727 14.8809 19.375 14.8809H17.125C16.4922 14.8809 16 14.3887 16 13.7559ZM20.5 10.7676C20.8164 10.3809 21.0625 9.85352 21.0625 9.25586C21.0625 8.69336 20.8164 8.16602 20.5 7.7793V10.7676ZM20.2188 2.22461C20.2188 3.31445 19.3047 4.19336 18.25 4.19336C17.1602 4.19336 16.2812 3.31445 16.2812 2.22461C16.2812 1.16992 17.1602 0.255859 18.25 0.255859C19.3047 0.255859 20.2188 1.16992 20.2188 2.22461ZM9.25 2.50586C9.25 1.27539 10.2344 0.255859 11.5 0.255859C12.7305 0.255859 13.75 1.27539 13.75 2.50586C13.75 3.77148 12.7305 4.75586 11.5 4.75586C10.2344 4.75586 9.25 3.77148 9.25 2.50586ZM16 9.81836C16 11.4004 15.0508 12.7715 13.75 13.4043V14.8809C13.75 15.5137 13.2227 16.0059 12.625 16.0059H10.375C9.74219 16.0059 9.25 15.5137 9.25 14.8809V13.4043C7.91406 12.7715 7 11.4004 7 9.81836C7 7.67383 8.75781 5.88086 10.9375 5.88086H12.0625C14.207 5.88086 16 7.67383 16 9.81836ZM9.25 11.3301V8.3418C8.89844 8.72852 8.6875 9.25586 8.6875 9.81836C8.6875 10.416 8.89844 10.9434 9.25 11.3301ZM13.75 8.3418V11.3301C14.0664 10.9082 14.3125 10.416 14.3125 9.81836C14.3125 9.25586 14.0664 8.72852 13.75 8.3418Z" fill="white"/>
</svg>