<svg xmlns="http://www.w3.org/2000/svg" width="79" height="15" viewBox="0 0 79 15" fill="none">
<path d="M13.4822 2.5979L11.9333 1.04907C11.781 0.896729 11.5779 0.795166 11.3494 0.795166H7.21069C6.29663 0.795166 5.58569 1.53149 5.58569 2.42017V8.92017C5.61108 9.83423 6.32202 10.5452 7.23608 10.5452H12.1111C12.9998 10.5452 13.7361 9.83423 13.7361 8.92017V3.18188C13.7361 2.95337 13.6345 2.75024 13.4822 2.5979ZM12.5173 8.92017C12.5173 9.14868 12.3142 9.32642 12.1111 9.32642H7.21069C6.98218 9.32642 6.80444 9.14868 6.80444 8.92017V2.44556C6.80444 2.21704 6.98218 2.03931 7.21069 2.03931H10.4607L10.4861 3.23267C10.4861 3.6897 10.8416 4.04517 11.2986 4.04517H12.4919V8.92017H12.5173ZM7.64233 12.1702C7.64233 12.3987 7.43921 12.5764 7.23608 12.5764H2.33569C2.10718 12.5764 1.92944 12.3987 1.92944 12.1702V5.69556C1.92944 5.46704 2.13257 5.28931 2.33569 5.28931H4.79858V4.04517H2.33569C1.44702 4.04517 0.710693 4.78149 0.710693 5.67017L0.736084 12.1702C0.736084 13.0842 1.44702 13.7952 2.36108 13.7952H7.23608C8.12476 13.7952 8.86108 13.0842 8.86108 12.1702V11.3577H7.64233V12.1702ZM22.5743 12.3262C24.5503 12.3262 25.6423 11.2732 26.2663 10.1942L24.6803 9.42717C24.3163 10.1422 23.5363 10.6882 22.5743 10.6882C21.0663 10.6882 19.9223 9.47917 19.9223 7.84117C19.9223 6.20317 21.0663 4.99417 22.5743 4.99417C23.5363 4.99417 24.3163 5.55317 24.6803 6.25517L26.2663 5.47517C25.6553 4.39617 24.5503 3.35617 22.5743 3.35617C20.0393 3.35617 18.0243 5.17617 18.0243 7.84117C18.0243 10.5062 20.0393 12.3262 22.5743 12.3262ZM30.4981 12.3262C32.5781 12.3262 33.8261 10.8182 33.8261 9.02417C33.8261 7.24317 32.5781 5.73517 30.4981 5.73517C28.4311 5.73517 27.1831 7.24317 27.1831 9.02417C27.1831 10.8182 28.4311 12.3262 30.4981 12.3262ZM30.4981 10.8572C29.4711 10.8572 28.8991 10.0122 28.8991 9.02417C28.8991 8.04917 29.4711 7.20417 30.4981 7.20417C31.5251 7.20417 32.1101 8.04917 32.1101 9.02417C32.1101 10.0122 31.5251 10.8572 30.4981 10.8572ZM36.9619 11.3642C37.4689 12.0142 38.1579 12.3262 38.8989 12.3262C40.5109 12.3262 41.6809 11.1172 41.6809 9.02417C41.6809 6.93117 40.5109 5.73517 38.8989 5.73517C38.1319 5.73517 37.4429 6.07317 36.9619 6.68417V5.89117H35.3109V14.5622H36.9619V11.3642ZM39.9649 9.02417C39.9649 10.1162 39.3279 10.8572 38.3789 10.8572C37.8459 10.8572 37.2349 10.5322 36.9619 10.1422V7.91917C37.2349 7.51617 37.8459 7.20417 38.3789 7.20417C39.3279 7.20417 39.9649 7.94517 39.9649 9.02417ZM42.9544 14.6272C43.1624 14.6792 43.5784 14.7182 43.7734 14.7182C44.8524 14.6922 45.6844 14.3802 46.1524 13.1972L49.1034 5.89117H47.3224L45.6844 10.2592L44.0464 5.89117H42.2784L44.8264 12.2612L44.5924 12.7942C44.4364 13.1322 44.1504 13.2492 43.7214 13.2492C43.5654 13.2492 43.3444 13.2102 43.2014 13.1452L42.9544 14.6272ZM59.2376 12.1702V10.5452H55.5716V3.49917H53.7256V12.1702H59.2376ZM61.5703 4.96817C62.1163 4.96817 62.5583 4.52617 62.5583 3.98017C62.5583 3.43417 62.1163 2.99217 61.5703 2.99217C61.0373 2.99217 60.5823 3.43417 60.5823 3.98017C60.5823 4.52617 61.0373 4.96817 61.5703 4.96817ZM62.4023 12.1702V5.89117H60.7513V12.1702H62.4023ZM70.1884 12.1702V7.73717C70.1884 6.51517 69.5254 5.73517 68.1474 5.73517C67.1204 5.73517 66.3534 6.22917 65.9504 6.71017V5.89117H64.2994V12.1702H65.9504V7.94517C66.2234 7.56817 66.7304 7.20417 67.3804 7.20417C68.0824 7.20417 68.5374 7.50317 68.5374 8.37417V12.1702H70.1884ZM78.2237 12.1702L75.6627 8.73817L78.1457 5.89117H76.1177L73.7387 8.68617V3.49917H72.0877V12.1702H73.7387V10.5582L74.4927 9.75217L76.1567 12.1702H78.2237Z" fill="#333333"/>
</svg>