<svg xmlns="http://www.w3.org/2000/svg" width="18" height="21" viewBox="0 0 18 21" fill="none">
<path d="M0.266113 19.0654C0.266113 20.1201 1.08643 20.9404 2.14111 20.9404H15.8911C16.9067 20.9404 17.7661 20.1201 17.7661 19.0654V8.44043H0.266113V19.0654ZM12.7661 11.4092C12.7661 11.1748 12.9614 10.9404 13.2349 10.9404H14.7974C15.0317 10.9404 15.2661 11.1748 15.2661 11.4092V12.9717C15.2661 13.2451 15.0317 13.4404 14.7974 13.4404H13.2349C12.9614 13.4404 12.7661 13.2451 12.7661 12.9717V11.4092ZM12.7661 16.4092C12.7661 16.1748 12.9614 15.9404 13.2349 15.9404H14.7974C15.0317 15.9404 15.2661 16.1748 15.2661 16.4092V17.9717C15.2661 18.2451 15.0317 18.4404 14.7974 18.4404H13.2349C12.9614 18.4404 12.7661 18.2451 12.7661 17.9717V16.4092ZM7.76611 11.4092C7.76611 11.1748 7.96143 10.9404 8.23486 10.9404H9.79736C10.0317 10.9404 10.2661 11.1748 10.2661 11.4092V12.9717C10.2661 13.2451 10.0317 13.4404 9.79736 13.4404H8.23486C7.96143 13.4404 7.76611 13.2451 7.76611 12.9717V11.4092ZM7.76611 16.4092C7.76611 16.1748 7.96143 15.9404 8.23486 15.9404H9.79736C10.0317 15.9404 10.2661 16.1748 10.2661 16.4092V17.9717C10.2661 18.2451 10.0317 18.4404 9.79736 18.4404H8.23486C7.96143 18.4404 7.76611 18.2451 7.76611 17.9717V16.4092ZM2.76611 11.4092C2.76611 11.1748 2.96143 10.9404 3.23486 10.9404H4.79736C5.03174 10.9404 5.26611 11.1748 5.26611 11.4092V12.9717C5.26611 13.2451 5.03174 13.4404 4.79736 13.4404H3.23486C2.96143 13.4404 2.76611 13.2451 2.76611 12.9717V11.4092ZM2.76611 16.4092C2.76611 16.1748 2.96143 15.9404 3.23486 15.9404H4.79736C5.03174 15.9404 5.26611 16.1748 5.26611 16.4092V17.9717C5.26611 18.2451 5.03174 18.4404 4.79736 18.4404H3.23486C2.96143 18.4404 2.76611 18.2451 2.76611 17.9717V16.4092ZM15.8911 3.44043H14.0161V1.56543C14.0161 1.25293 13.7036 0.94043 13.3911 0.94043H12.1411C11.7896 0.94043 11.5161 1.25293 11.5161 1.56543V3.44043H6.51611V1.56543C6.51611 1.25293 6.20361 0.94043 5.89111 0.94043H4.64111C4.28955 0.94043 4.01611 1.25293 4.01611 1.56543V3.44043H2.14111C1.08643 3.44043 0.266113 4.2998 0.266113 5.31543V7.19043H17.7661V5.31543C17.7661 4.2998 16.9067 3.44043 15.8911 3.44043Z" fill="#797979"/>
</svg>