<svg xmlns="http://www.w3.org/2000/svg" width="15" height="17" viewBox="0 0 15 17" fill="none">
<path d="M4.34387 1.11035C4.50012 0.766602 4.84387 0.547852 5.21887 0.547852H9.00012C9.37512 0.547852 9.71887 0.766602 9.87512 1.11035L10.1251 1.54785H13.1251C13.6564 1.54785 14.1251 2.0166 14.1251 2.54785C14.1251 3.11035 13.6564 3.54785 13.1251 3.54785H1.12512C0.562622 3.54785 0.125122 3.11035 0.125122 2.54785C0.125122 2.0166 0.562622 1.54785 1.12512 1.54785H4.12512L4.34387 1.11035ZM12.4376 15.1416C12.4064 15.9541 11.7501 16.5479 10.9376 16.5479H3.28137C2.46887 16.5479 1.81262 15.9541 1.78137 15.1416L1.09387 4.54785H13.1251L12.4376 15.1416Z" fill="#A8A8A8"/>
</svg>