<svg xmlns="http://www.w3.org/2000/svg" width="24" height="24" viewBox="0 0 24 24" fill="none">
<path d="M0.866699 11.7788C0.866699 5.44482 5.98779 0.278809 12.3667 0.278809C18.7007 0.278809 23.8667 5.44482 23.8667 11.7788C23.8667 18.1577 18.7007 23.2788 12.3667 23.2788C5.98779 23.2788 0.866699 18.1577 0.866699 11.7788ZM13.2651 6.29834C13.2651 5.75928 12.8608 5.31006 12.3218 5.31006C11.7827 5.31006 11.3335 5.75928 11.3335 6.29834V7.01709C11.064 7.10693 10.7944 7.15186 10.5698 7.28662C9.76123 7.646 8.99756 8.2749 8.81787 9.26318C8.59326 10.2964 9.04248 11.2397 9.94092 11.7788C10.5698 12.1831 11.4233 12.4526 12.0972 12.6323C12.187 12.6772 12.2769 12.6772 12.4116 12.7222C12.9507 12.8569 13.4897 12.9917 13.939 13.3062C14.478 13.6655 14.2085 14.3394 13.6694 14.519C13.3101 14.6987 12.6812 14.7886 11.9175 14.6538C11.3784 14.564 10.8843 14.3843 10.3452 14.2046C10.2554 14.2046 10.1206 14.1597 10.0308 14.1147C9.53662 13.9351 8.95264 14.2046 8.81787 14.7437C8.63818 15.2378 8.90771 15.7769 9.40186 15.9565C10.0308 16.1812 10.7046 16.3608 11.3335 16.4956V17.3042C11.3335 17.8433 11.7827 18.2476 12.3218 18.2476C12.8608 18.2476 13.2651 17.8433 13.2651 17.3042V16.6304C13.6694 16.5854 14.0737 16.4956 14.4331 16.3159C15.2417 16.0015 15.9604 15.3276 16.1401 14.3394C16.3198 13.3062 15.9155 12.3179 15.062 11.7339C14.3882 11.2397 13.4897 11.0151 12.771 10.7905C12.6812 10.7905 12.5913 10.7456 12.4565 10.7007C11.9624 10.5659 11.4233 10.4312 10.9741 10.1616C10.4351 9.80225 10.8394 9.26318 11.3335 9.03857C11.8726 8.81396 12.5464 8.76904 13.1753 8.85889C13.4897 8.94873 13.8042 9.03857 14.1187 9.12842C14.1636 9.12842 14.2534 9.17334 14.2983 9.17334C14.8374 9.30811 15.3765 9.03857 15.5112 8.49951C15.646 8.00537 15.3315 7.46631 14.8374 7.28662C14.7476 7.28662 14.6577 7.2417 14.5679 7.2417C14.1636 7.10693 13.7144 6.97217 13.2651 6.92725V6.29834Z" fill="#CB2C2C"/>
</svg>