<svg xmlns="http://www.w3.org/2000/svg" width="14" height="5" viewBox="0 0 14 5" fill="none">
<path d="M8.96875 2.5C8.96875 1.43359 8.06641 0.53125 7 0.53125C5.90625 0.53125 5.03125 1.43359 5.03125 2.5C5.03125 3.59375 5.90625 4.46875 7 4.46875C8.06641 4.46875 8.96875 3.59375 8.96875 2.5ZM11.8125 0.53125C10.7188 0.53125 9.84375 1.43359 9.84375 2.5C9.84375 3.59375 10.7188 4.46875 11.8125 4.46875C12.8789 4.46875 13.7812 3.59375 13.7812 2.5C13.7812 1.43359 12.8789 0.53125 11.8125 0.53125ZM2.1875 0.53125C1.09375 0.53125 0.21875 1.43359 0.21875 2.5C0.21875 3.59375 1.09375 4.46875 2.1875 4.46875C3.25391 4.46875 4.15625 3.59375 4.15625 2.5C4.15625 1.43359 3.25391 0.53125 2.1875 0.53125Z" fill="#5C5C5C"/>
</svg>