<svg xmlns="http://www.w3.org/2000/svg" width="17" height="17" viewBox="0 0 17 17" fill="none">
<path d="M15.4376 1.8291C16.1251 2.5166 16.1251 3.61035 15.4376 4.29785L14.5001 5.23535L11.4376 2.17285L12.3751 1.23535C13.0626 0.547852 14.1564 0.547852 14.8439 1.23535L15.4376 1.8291ZM5.50012 8.11035L10.7189 2.8916L13.7814 5.9541L8.56262 11.1729C8.37512 11.3604 8.12512 11.5166 7.87512 11.6104L5.09387 12.5166C4.81262 12.6104 4.53137 12.5479 4.34387 12.3291C4.12512 12.1416 4.06262 11.8291 4.15637 11.5791L5.06262 8.79785C5.15637 8.54785 5.31262 8.29785 5.50012 8.11035ZM6.12512 2.54785C6.65637 2.54785 7.12512 3.0166 7.12512 3.54785C7.12512 4.11035 6.65637 4.54785 6.12512 4.54785H3.12512C2.56262 4.54785 2.12512 5.0166 2.12512 5.54785V13.5479C2.12512 14.1104 2.56262 14.5479 3.12512 14.5479H11.1251C11.6564 14.5479 12.1251 14.1104 12.1251 13.5479V10.5479C12.1251 10.0166 12.5626 9.54785 13.1251 9.54785C13.6564 9.54785 14.1251 10.0166 14.1251 10.5479V13.5479C14.1251 15.2041 12.7814 16.5479 11.1251 16.5479H3.12512C1.43762 16.5479 0.125122 15.2041 0.125122 13.5479V5.54785C0.125122 3.8916 1.43762 2.54785 3.12512 2.54785H6.12512Z" fill="#A8A8A8"/>
</svg>