<svg xmlns="http://www.w3.org/2000/svg" width="17" height="19" viewBox="0 0 17 19" fill="none">
<path d="M4 1.25586C4 0.658203 4.49219 0.130859 5.125 0.130859C5.72266 0.130859 6.25 0.658203 6.25 1.25586V2.38086H10.75V1.25586C10.75 0.658203 11.2422 0.130859 11.875 0.130859C12.4727 0.130859 13 0.658203 13 1.25586V2.38086H14.6875C15.6016 2.38086 16.375 3.1543 16.375 4.06836V5.75586H0.625V4.06836C0.625 3.1543 1.36328 2.38086 2.3125 2.38086H4V1.25586ZM16.375 16.4434C16.375 17.3926 15.6016 18.1309 14.6875 18.1309H2.3125C1.36328 18.1309 0.625 17.3926 0.625 16.4434V6.88086H16.375V16.4434Z" fill="white"/>
</svg>