<svg xmlns="http://www.w3.org/2000/svg" width="27" height="18" viewBox="0 0 27 18" fill="none">
<path d="M26.1953 8.37744C23.7695 3.61572 18.918 0.381348 13.4375 0.381348C7.91211 0.381348 3.06055 3.61572 0.634766 8.37744C0.544922 8.55713 0.5 8.78174 0.5 9.00635C0.5 9.27588 0.544922 9.50049 0.634766 9.68018C3.06055 14.4419 7.91211 17.6313 13.4375 17.6313C18.918 17.6313 23.7695 14.4419 26.1953 9.68018C26.2852 9.50049 26.3301 9.27588 26.3301 9.05127C26.3301 8.78174 26.2852 8.55713 26.1953 8.37744ZM13.4375 15.4751C9.84375 15.4751 6.96875 12.6001 6.96875 9.00635C6.96875 5.45752 9.84375 2.5376 13.4375 2.5376C16.9863 2.5376 19.9062 5.45752 19.9062 9.00635V9.05127C19.9062 12.6001 16.9863 15.52 13.4375 15.52V15.4751ZM13.4375 4.69385C13.0332 4.73877 12.6289 4.78369 12.2695 4.87354C12.5391 5.23291 12.6738 5.68213 12.6738 6.17627C12.6738 7.34424 11.7305 8.2876 10.5625 8.2876C10.0684 8.2876 9.61914 8.15283 9.25977 7.8833C9.16992 8.24268 9.125 8.64697 9.125 9.00635C9.125 11.3872 11.0566 13.3188 13.4375 13.3188C15.8184 13.3188 17.75 11.3872 17.75 9.00635C17.75 6.62549 15.8184 4.73877 13.4375 4.73877V4.69385Z" fill="#CCCCCC"/>
</svg>