<svg xmlns="http://www.w3.org/2000/svg" width="16" height="17" viewBox="0 0 16 17" fill="none">
<path d="M8.70312 4.45312C9.05469 4.48828 9.40625 4.59375 9.72266 4.69922C9.79297 4.69922 9.86328 4.73438 9.93359 4.73438C10.3203 4.875 10.5664 5.29688 10.4609 5.68359C10.3555 6.10547 9.93359 6.31641 9.51172 6.21094C9.47656 6.21094 9.40625 6.17578 9.37109 6.17578C9.125 6.10547 8.87891 6.03516 8.63281 5.96484C8.14062 5.89453 7.61328 5.92969 7.19141 6.10547C6.80469 6.28125 6.48828 6.70312 6.91016 6.98438C7.26172 7.19531 7.68359 7.30078 8.07031 7.40625C8.17578 7.44141 8.24609 7.47656 8.31641 7.47656C8.87891 7.65234 9.58203 7.82812 10.1094 8.21484C10.7773 8.67188 11.0938 9.44531 10.9531 10.2539C10.8125 11.0273 10.25 11.5547 9.61719 11.8008C9.33594 11.9414 9.01953 12.0117 8.70312 12.0469V12.5742C8.70312 12.9961 8.38672 13.3125 7.96484 13.3125C7.54297 13.3125 7.19141 12.9961 7.19141 12.5742V11.9414C6.69922 11.8359 6.17188 11.6953 5.67969 11.5195C5.29297 11.3789 5.08203 10.957 5.22266 10.5703C5.32812 10.1484 5.78516 9.9375 6.17188 10.0781C6.24219 10.1133 6.34766 10.1484 6.41797 10.1484C6.83984 10.2891 7.22656 10.4297 7.64844 10.5C8.24609 10.6055 8.70312 10.5352 9.01953 10.3945C9.44141 10.2539 9.65234 9.72656 9.23047 9.44531C8.87891 9.19922 8.45703 9.09375 8.03516 8.98828C7.92969 8.95312 7.85938 8.95312 7.78906 8.91797C7.26172 8.77734 6.59375 8.56641 6.10156 8.25C5.39844 7.82812 5.04688 7.08984 5.22266 6.28125C5.36328 5.50781 5.96094 5.01562 6.59375 4.73438C6.76953 4.62891 6.98047 4.59375 7.19141 4.52344V3.96094C7.19141 3.53906 7.54297 3.1875 7.96484 3.1875C8.38672 3.1875 8.70312 3.53906 8.70312 3.96094V4.45312ZM0.125 2.625C0.125 1.39453 1.10938 0.375 2.375 0.375H13.625C14.8555 0.375 15.875 1.39453 15.875 2.625V13.875C15.875 15.1406 14.8555 16.125 13.625 16.125H2.375C1.10938 16.125 0.125 15.1406 0.125 13.875V2.625ZM1.8125 2.625V13.875C1.8125 14.1914 2.05859 14.4375 2.375 14.4375H13.625C13.9062 14.4375 14.1875 14.1914 14.1875 13.875V2.625C14.1875 2.34375 13.9062 2.0625 13.625 2.0625H2.375C2.05859 2.0625 1.8125 2.34375 1.8125 2.625Z" fill="#5C5C5C"/>
</svg>