<svg xmlns="http://www.w3.org/2000/svg" width="23" height="23" viewBox="0 0 23 23" fill="none">
<path d="M21.8303 3.11621L19.2092 0.495117C18.9514 0.237305 18.6077 0.0654297 18.2209 0.0654297H11.217C9.67017 0.0654297 8.46704 1.31152 8.46704 2.81543V13.8154C8.51001 15.3623 9.71313 16.5654 11.26 16.5654H19.51C21.0139 16.5654 22.26 15.3623 22.26 13.8154V4.10449C22.26 3.71777 22.0881 3.37402 21.8303 3.11621ZM20.1975 13.8154C20.1975 14.2021 19.8538 14.5029 19.51 14.5029H11.217C10.8303 14.5029 10.5295 14.2021 10.5295 13.8154V2.8584C10.5295 2.47168 10.8303 2.1709 11.217 2.1709H16.717L16.76 4.19043C16.76 4.96387 17.3616 5.56543 18.135 5.56543H20.1545V13.8154H20.1975ZM11.9475 19.3154C11.9475 19.7021 11.6038 20.0029 11.26 20.0029H2.96704C2.58032 20.0029 2.27954 19.7021 2.27954 19.3154V8.3584C2.27954 7.97168 2.62329 7.6709 2.96704 7.6709H7.13501V5.56543H2.96704C1.46313 5.56543 0.217041 6.81152 0.217041 8.31543L0.26001 19.3154C0.26001 20.8623 1.46313 22.0654 3.01001 22.0654H11.26C12.7639 22.0654 14.01 20.8623 14.01 19.3154V17.9404H11.9475V19.3154Z" fill="white"/>
</svg>