<svg xmlns="http://www.w3.org/2000/svg" width="18" height="19" viewBox="0 0 18 19" fill="none">
<path d="M11.25 3.88086H6.75L5.0625 1.38477C4.81641 1.0332 5.09766 0.505859 5.51953 0.505859H12.4453C12.8672 0.505859 13.1484 1.0332 12.9023 1.38477L11.25 3.88086ZM6.75 5.00586H11.25C11.3555 5.11133 11.5312 5.2168 11.6719 5.32227C13.6758 6.58789 18 9.33008 18 15.1309C18 16.9941 16.4883 18.5059 14.625 18.5059H3.375C1.47656 18.5059 0 16.9941 0 15.1309C0 9.33008 4.28906 6.58789 6.29297 5.32227C6.43359 5.2168 6.60938 5.11133 6.75 5.00586ZM9.70312 8.38086C9.70312 7.99414 9.38672 7.67773 8.96484 7.67773C8.57812 7.67773 8.26172 7.99414 8.26172 8.38086V8.5918C8.08594 8.66211 7.875 8.69727 7.73438 8.80273C7.20703 9.01367 6.75 9.4707 6.60938 10.1035C6.57422 10.4551 6.60938 10.8066 6.75 11.123C6.89062 11.4395 7.13672 11.6504 7.34766 11.8262C7.76953 12.1074 8.29688 12.248 8.71875 12.3887H8.78906C9.28125 12.5645 9.59766 12.6699 9.80859 12.8105C9.91406 12.8809 9.94922 12.916 9.94922 12.9512C9.94922 12.9863 9.98438 13.0566 9.94922 13.1973C9.94922 13.3027 9.87891 13.4082 9.66797 13.5137C9.45703 13.584 9.10547 13.6191 8.64844 13.5488C8.4375 13.5137 8.08594 13.4082 7.73438 13.3027C7.66406 13.2676 7.59375 13.2324 7.52344 13.1973C7.13672 13.0918 6.75 13.3027 6.64453 13.6543C6.50391 14.041 6.71484 14.4277 7.06641 14.5332C7.10156 14.5684 7.17188 14.5684 7.24219 14.6035C7.48828 14.709 7.94531 14.8496 8.26172 14.9199V15.1309C8.26172 15.5527 8.57812 15.8691 8.96484 15.8691C9.38672 15.8691 9.70312 15.5527 9.70312 15.1309V14.9551C9.87891 14.9199 10.0547 14.8496 10.2305 14.7793C10.793 14.5684 11.2148 14.1113 11.3555 13.4434C11.3906 13.0566 11.3906 12.7051 11.25 12.3887C11.1094 12.0723 10.8633 11.8613 10.6523 11.6855C10.2305 11.3691 9.63281 11.1934 9.21094 11.0527H9.17578C8.68359 10.9121 8.36719 10.8066 8.15625 10.666C8.05078 10.5957 8.01562 10.5605 8.01562 10.5254C8.01562 10.5254 7.98047 10.4902 8.01562 10.3496C8.01562 10.2793 8.08594 10.1738 8.29688 10.0684C8.50781 9.96289 8.85938 9.92773 9.31641 9.96289C9.45703 9.99805 9.94922 10.1035 10.0547 10.1387C10.4414 10.2441 10.8281 9.99805 10.9336 9.64648C11.0391 9.25977 10.793 8.87305 10.4414 8.76758C10.2656 8.73242 9.91406 8.66211 9.70312 8.62695V8.38086Z" fill="white"/>
</svg>