<svg xmlns="http://www.w3.org/2000/svg" width="17" height="19" viewBox="0 0 17 19" fill="none">
<path d="M15.8503 3.58398L9.10034 0.771484C8.92456 0.701172 8.64331 0.666016 8.46753 0.666016C8.25659 0.666016 7.97534 0.701172 7.79956 0.771484L1.04956 3.58398C0.416748 3.86523 0.0300293 4.46289 0.0300293 5.13086C0.0300293 14.2012 6.67456 18.6309 8.43237 18.6309C10.2605 18.6309 16.905 14.1309 16.905 5.13086C16.905 4.46289 16.4832 3.86523 15.8503 3.58398ZM11.8425 7.66211C11.8425 7.87305 11.7722 8.08398 11.6316 8.22461L8.25659 12.1621C8.0105 12.4434 7.69409 12.4434 7.62378 12.4434C7.37769 12.4434 7.16675 12.3379 7.02612 12.1973L5.33862 10.5098C5.16284 10.3691 5.09253 10.1582 5.09253 9.91211C5.09253 9.45508 5.44409 9.06836 5.93628 9.06836C6.14722 9.06836 6.35815 9.13867 6.49878 9.31445L7.55347 10.334L10.3308 7.09961C10.5066 6.88867 10.7527 6.81836 10.9988 6.81836C11.6316 6.81836 11.8425 7.41602 11.8425 7.66211Z" fill="#CB2C2C"/>
</svg>