<svg xmlns="http://www.w3.org/2000/svg" width="21" height="19" viewBox="0 0 21 19" fill="none">
<path d="M20.5898 9.63086C20.5898 10.2637 20.0625 10.7559 19.4648 10.7559H18.3398L18.375 16.3809C18.375 16.4863 18.375 16.5918 18.375 16.6621V17.2246C18.375 18.0332 17.7422 18.6309 16.9688 18.6309H16.4062C16.3359 18.6309 16.3008 18.6309 16.2656 18.6309C16.2305 18.6309 16.1602 18.6309 16.125 18.6309H14.1562C13.3477 18.6309 12.75 18.0332 12.75 17.2246V14.1309C12.75 13.5332 12.2227 13.0059 11.625 13.0059H9.375C8.74219 13.0059 8.25 13.5332 8.25 14.1309V17.2246C8.25 18.0332 7.61719 18.6309 6.84375 18.6309H4.875C4.80469 18.6309 4.76953 18.6309 4.69922 18.6309C4.66406 18.6309 4.62891 18.6309 4.59375 18.6309H4.03125C3.22266 18.6309 2.625 18.0332 2.625 17.2246V13.2871C2.625 13.2871 2.625 13.252 2.625 13.2168V10.7559H1.5C0.867188 10.7559 0.375 10.2637 0.375 9.63086C0.375 9.31445 0.480469 9.0332 0.726562 8.78711L9.72656 0.947266C9.97266 0.701172 10.2539 0.630859 10.5 0.630859C10.7461 0.630859 11.0273 0.736328 11.2383 0.912109L20.2031 8.78711C20.4844 9.0332 20.625 9.31445 20.5898 9.63086Z" fill="white"/>
</svg>