<svg xmlns="http://www.w3.org/2000/svg" width="21" height="18" viewBox="0 0 21 18" fill="none">
<path d="M13.405 2.3291L9.40503 16.3291C9.24878 16.8604 8.71753 17.1729 8.18628 17.0166C7.65503 16.8604 7.34253 16.3291 7.49878 15.7979L11.4988 1.79785C11.655 1.2666 12.1863 0.954102 12.7175 1.11035C13.2488 1.2666 13.5613 1.79785 13.405 2.3291ZM16.655 4.86035L20.155 8.36035C20.5613 8.73535 20.5613 9.3916 20.155 9.7666L16.655 13.2666C16.28 13.6729 15.6238 13.6729 15.2488 13.2666C14.8425 12.8916 14.8425 12.2354 15.2488 11.8604L18.03 9.04785L15.2488 6.2666C14.8425 5.8916 14.8425 5.23535 15.2488 4.86035C15.6238 4.4541 16.28 4.4541 16.655 4.86035ZM5.65503 6.2666L2.87378 9.04785L5.65503 11.8604C6.06128 12.2354 6.06128 12.8916 5.65503 13.2666C5.28003 13.6729 4.62378 13.6729 4.24878 13.2666L0.748779 9.7666C0.342529 9.3916 0.342529 8.73535 0.748779 8.36035L4.24878 4.86035C4.62378 4.4541 5.28003 4.4541 5.65503 4.86035C6.06128 5.23535 6.06128 5.8916 5.65503 6.2666Z" fill="#A8A8A8"/>
</svg>