<svg xmlns="http://www.w3.org/2000/svg" width="15" height="15" viewBox="0 0 15 15" fill="none">
<path d="M3.31128 6.73486H1.12378C0.740967 6.73486 0.467529 7.03564 0.467529 7.39111V13.9536C0.467529 14.3364 0.740967 14.6099 1.12378 14.6099H3.31128C3.66675 14.6099 3.96753 14.3364 3.96753 13.9536V7.39111C3.96753 7.03564 3.66675 6.73486 3.31128 6.73486ZM2.21753 13.5161C1.83472 13.5161 1.56128 13.2427 1.56128 12.8599C1.56128 12.5044 1.83472 12.2036 2.21753 12.2036C2.573 12.2036 2.87378 12.5044 2.87378 12.8599C2.87378 13.2427 2.573 13.5161 2.21753 13.5161ZM10.9675 2.85205C10.9675 0.828613 9.65503 0.609863 8.99878 0.609863C8.42456 0.609863 8.17847 1.70361 8.06909 2.1958C7.90503 2.79736 7.76831 3.39893 7.35815 3.80908C6.48315 4.71143 6.01831 5.83252 4.92456 6.89893C4.86987 6.98096 4.84253 7.06299 4.84253 7.14502V12.9966C4.84253 13.1606 4.97925 13.2974 5.14331 13.3247C5.58081 13.3247 6.15503 13.5708 6.59253 13.7622C7.46753 14.145 8.53394 14.6099 9.84644 14.6099H9.92847C11.1042 14.6099 12.4988 14.6099 13.0457 13.8169C13.2917 13.4888 13.3464 13.0786 13.2097 12.5864C13.6746 12.1216 13.8933 11.2466 13.6746 10.5356C14.1394 9.90674 14.1941 9.00439 13.9207 8.37549C14.2488 8.04736 14.4675 7.52783 14.4402 7.03564C14.4402 6.18799 13.7292 5.42236 12.8269 5.42236H10.0378C10.2566 4.65674 10.9675 4.00049 10.9675 2.85205Z" fill="#A4A4A4"/>
</svg>