<svg xmlns="http://www.w3.org/2000/svg" width="23" height="12" viewBox="0 0 23 12" fill="none">
<path d="M0.39917 5.63086C0.39917 2.53711 2.89526 0.00585938 6.02417 0.00585938H9.39917C9.99683 0.00585938 10.5242 0.533203 10.5242 1.13086C10.5242 1.76367 9.99683 2.25586 9.39917 2.25586H6.02417C4.12573 2.25586 2.64917 3.76758 2.64917 5.63086C2.64917 7.49414 4.12573 9.00586 6.02417 9.00586H9.39917C9.99683 9.00586 10.5242 9.5332 10.5242 10.1309C10.5242 10.7637 9.99683 11.2559 9.39917 11.2559H6.02417C2.89526 11.2559 0.39917 8.75977 0.39917 5.63086ZM17.2742 11.2559H13.8992C13.2664 11.2559 12.7742 10.7637 12.7742 10.1309C12.7742 9.5332 13.2664 9.00586 13.8992 9.00586H17.2742C19.1375 9.00586 20.6492 7.49414 20.6492 5.63086C20.6492 3.76758 19.1375 2.25586 17.2742 2.25586H13.8992C13.2664 2.25586 12.7742 1.76367 12.7742 1.13086C12.7742 0.533203 13.2664 0.00585938 13.8992 0.00585938H17.2742C20.3679 0.00585938 22.8992 2.53711 22.8992 5.63086C22.8992 8.75977 20.3679 11.2559 17.2742 11.2559ZM15.0242 4.50586C15.6218 4.50586 16.1492 5.0332 16.1492 5.63086C16.1492 6.26367 15.6218 6.75586 15.0242 6.75586H8.27417C7.64136 6.75586 7.14917 6.26367 7.14917 5.63086C7.14917 5.0332 7.64136 4.50586 8.27417 4.50586H15.0242Z" fill="white"/>
</svg>