<svg xmlns="http://www.w3.org/2000/svg" width="14" height="20" viewBox="0 0 14 20" fill="none">
<path d="M6.50903 18.5889C6.82544 19.0811 7.56372 19.0811 7.88013 18.5889C13.0129 11.2061 13.9622 10.4326 13.9622 7.69043C13.9622 3.96387 10.9387 0.94043 7.21216 0.94043C3.45044 0.94043 0.462158 3.96387 0.462158 7.69043C0.462158 10.4326 1.37622 11.2061 6.50903 18.5889ZM7.21216 10.5029C5.63013 10.5029 4.39966 9.27246 4.39966 7.69043C4.39966 6.14355 5.63013 4.87793 7.21216 4.87793C8.75903 4.87793 10.0247 6.14355 10.0247 7.69043C10.0247 9.27246 8.75903 10.5029 7.21216 10.5029Z" fill="#5C5C5C"/>
</svg>