<svg xmlns="http://www.w3.org/2000/svg" width="18" height="21" viewBox="0 0 18 21" fill="none">
<path d="M3.3125 7.88086V6.00586C3.3125 2.91992 5.8125 0.380859 8.9375 0.380859C12.0234 0.380859 14.5625 2.91992 14.5625 6.00586V7.88086H15.1875C16.5547 7.88086 17.6875 9.01367 17.6875 10.3809V17.8809C17.6875 19.2871 16.5547 20.3809 15.1875 20.3809H2.6875C1.28125 20.3809 0.1875 19.2871 0.1875 17.8809V10.3809C0.1875 9.01367 1.28125 7.88086 2.6875 7.88086H3.3125ZM5.8125 7.88086H12.0625V6.00586C12.0625 4.28711 10.6562 2.88086 8.9375 2.88086C7.17969 2.88086 5.8125 4.28711 5.8125 6.00586V7.88086Z" fill="white"/>
</svg>