<svg xmlns="http://www.w3.org/2000/svg" width="17" height="15" viewBox="0 0 17 15" fill="none">
<path d="M3.5 14.3076H5.5C6.03125 14.3076 6.5 13.8701 6.5 13.3076C6.5 12.7764 6.03125 12.3076 5.5 12.3076H3.5C2.9375 12.3076 2.5 11.8701 2.5 11.3076V3.30762C2.5 2.77637 2.9375 2.30762 3.5 2.30762H5.5C6.03125 2.30762 6.5 1.87012 6.5 1.30762C6.5 0.776367 6.03125 0.307617 5.5 0.307617H3.5C1.8125 0.307617 0.5 1.65137 0.5 3.30762V11.3076C0.5 12.9639 1.8125 14.3076 3.5 14.3076ZM16.25 6.77637L11.75 2.52637C11.5312 2.30762 11.2188 2.27637 10.9375 2.37012C10.6562 2.49512 10.5 2.77637 10.5 3.05762V5.30762H6.5C5.9375 5.30762 5.5 5.77637 5.5 6.30762V8.30762C5.5 8.87012 5.9375 9.30762 6.5 9.30762H10.5V11.5576C10.5 11.8389 10.6562 12.1201 10.9375 12.2451C11.2188 12.3389 11.5312 12.3076 11.75 12.0889L16.25 7.83887C16.5625 7.58887 16.5625 7.05762 16.25 6.77637Z" fill="#A8A8A8"/>
</svg>