<svg xmlns="http://www.w3.org/2000/svg" width="18" height="19" viewBox="0 0 18 19" fill="none">
<path d="M11.4961 3.35034L13.5 2.5769L14.2383 0.608154C14.2734 0.432373 14.4492 0.326904 14.625 0.326904C14.7656 0.326904 14.9414 0.432373 14.9766 0.608154L15.75 2.5769L17.7188 3.35034C17.8945 3.3855 18 3.56128 18 3.7019C18 3.87769 17.8945 4.05347 17.7188 4.08862L15.75 4.8269L14.9766 6.83081C14.9414 6.97144 14.7656 7.0769 14.625 7.0769C14.4492 7.0769 14.2734 6.97144 14.2383 6.83081L13.5 4.8269L11.4961 4.08862C11.3203 4.05347 11.25 3.87769 11.25 3.7019C11.25 3.56128 11.3203 3.3855 11.4961 3.35034ZM9.03516 6.93628L13.043 8.7644C13.2539 8.86987 13.3945 9.08081 13.3945 9.29175C13.3945 9.50269 13.2539 9.71362 13.043 9.81909L9.03516 11.6472L7.20703 15.655C7.10156 15.866 6.89062 16.0066 6.67969 16.0066C6.46875 16.0066 6.25781 15.866 6.1875 15.655L4.32422 11.6472L0.316406 9.81909C0.105469 9.71362 0 9.50269 0 9.29175C0 9.08081 0.105469 8.86987 0.316406 8.7644L4.32422 6.93628L6.1875 2.92847C6.25781 2.71753 6.46875 2.5769 6.67969 2.5769C6.89062 2.5769 7.10156 2.71753 7.20703 2.92847L9.03516 6.93628ZM14.2383 11.8582C14.2734 11.6824 14.4492 11.5769 14.625 11.5769C14.7656 11.5769 14.9414 11.6824 14.9766 11.8582L15.75 13.8269L17.7188 14.6003C17.8945 14.6355 18 14.8113 18 14.9519C18 15.1277 17.8945 15.3035 17.7188 15.3386L15.75 16.0769L14.9766 18.0808C14.9414 18.2214 14.7656 18.3269 14.625 18.3269C14.4492 18.3269 14.2734 18.2214 14.2383 18.0808L13.5 16.0769L11.4961 15.3386C11.3203 15.3035 11.25 15.1277 11.25 14.9519C11.25 14.8113 11.3203 14.6355 11.4961 14.6003L13.5 13.8269L14.2383 11.8582Z" fill="#DDDDDD"/>
</svg>