<svg xmlns="http://www.w3.org/2000/svg" width="34" height="33" viewBox="0 0 34 33" fill="none">
<path d="M15.4297 1.29297C15.4902 1.11133 15.6719 0.990234 15.9141 0.990234C16.0957 0.990234 16.2773 1.11133 16.3379 1.29297L17.1855 3.59375L19.4863 4.44141C19.668 4.50195 19.7891 4.68359 19.7891 4.86523C19.7891 5.10742 19.668 5.28906 19.4863 5.34961L17.1855 6.19727L16.3379 8.4375C16.2773 8.61914 16.0957 8.74023 15.9141 8.74023C15.6719 8.74023 15.4902 8.61914 15.4297 8.4375L14.582 6.19727L12.2812 5.34961C12.0996 5.28906 12.0391 5.10742 12.0391 4.86523C12.0391 4.68359 12.0996 4.50195 12.2812 4.44141L14.582 3.59375L15.4297 1.29297ZM26.2676 1.89844C27.418 0.748047 29.2344 0.748047 30.3848 1.89844L32.4434 3.95703C33.5938 5.10742 33.5938 6.92383 32.4434 8.07422L9.375 31.1426C8.22461 32.293 6.4082 32.293 5.25781 31.1426L3.19922 29.084C2.04883 27.9336 2.04883 26.1172 3.19922 24.9668L26.2676 1.89844ZM28.3262 4.62305L21.9688 10.9805L23.3613 12.373L29.7188 6.01562L28.3262 4.62305ZM0.837891 8.13477L4.28906 6.80273L5.56055 3.41211C5.62109 3.10938 5.92383 2.92773 6.22656 2.92773C6.46875 2.92773 6.77148 3.10938 6.83203 3.41211L8.16406 6.80273L11.5547 8.13477C11.8574 8.19531 12.0391 8.49805 12.0391 8.74023C12.0391 9.04297 11.8574 9.3457 11.5547 9.40625L8.16406 10.6777L6.83203 14.1289C6.77148 14.3711 6.46875 14.5527 6.22656 14.5527C5.92383 14.5527 5.62109 14.3711 5.56055 14.1289L4.28906 10.6777L0.837891 9.40625C0.535156 9.3457 0.414062 9.04297 0.414062 8.74023C0.414062 8.49805 0.535156 8.19531 0.837891 8.13477ZM22.1504 23.6348L25.6016 22.3027L26.873 18.9121C26.9336 18.6094 27.2363 18.4277 27.5391 18.4277C27.7812 18.4277 28.084 18.6094 28.1445 18.9121L29.4766 22.3027L32.8672 23.6348C33.1699 23.6953 33.3516 23.998 33.3516 24.2402C33.3516 24.543 33.1699 24.8457 32.8672 24.9062L29.4766 26.1777L28.1445 29.6289C28.084 29.8711 27.7812 30.0527 27.5391 30.0527C27.2363 30.0527 26.9336 29.8711 26.873 29.6289L25.6016 26.1777L22.1504 24.9062C21.8477 24.8457 21.7266 24.543 21.7266 24.2402C21.7266 23.998 21.8477 23.6953 22.1504 23.6348Z" fill="#828282"/>
</svg>