<svg xmlns="http://www.w3.org/2000/svg" width="22" height="19" viewBox="0 0 22 19" fill="none">
<path d="M6.5 1.63086V2.75586H11V1.63086C11 1.0332 11.4922 0.505859 12.125 0.505859C12.7227 0.505859 13.25 1.0332 13.25 1.63086V2.75586H14.9375C15.8516 2.75586 16.625 3.5293 16.625 4.44336V6.13086H0.875V4.44336C0.875 3.5293 1.61328 2.75586 2.5625 2.75586H4.25V1.63086C4.25 1.0332 4.74219 0.505859 5.375 0.505859C5.97266 0.505859 6.5 1.0332 6.5 1.63086ZM0.875 7.25586H16.625V8.80273L11.0352 14.3926C10.7539 14.6738 10.543 15.0254 10.4375 15.4473L9.91016 17.5566C9.83984 17.873 9.83984 18.2246 9.94531 18.5059H2.5625C1.61328 18.5059 0.875 17.7676 0.875 16.8184V7.25586ZM5.09375 10.0684C4.60156 10.0684 4.25 10.4551 4.25 10.9121C4.25 11.4043 4.60156 11.7559 5.09375 11.7559H10.1562C10.6133 11.7559 11 11.4043 11 10.9121C11 10.4551 10.6133 10.0684 10.1562 10.0684H5.09375ZM5.09375 15.1309H7.90625C8.36328 15.1309 8.75 14.7793 8.75 14.2871C8.75 13.8301 8.36328 13.4434 7.90625 13.4434H5.09375C4.60156 13.4434 4.25 13.8301 4.25 14.2871C4.25 14.7793 4.60156 15.1309 5.09375 15.1309ZM20.7031 9.33008C21.2305 9.85742 21.2305 10.7363 20.7031 11.2988L19.6484 12.3535L17.1523 9.85742L18.207 8.80273C18.7344 8.27539 19.6484 8.27539 20.1758 8.80273L20.7031 9.33008ZM11.8086 15.166L16.3789 10.6309L18.875 13.127L14.3047 17.6621C14.1641 17.8027 13.9883 17.9082 13.8125 17.9785L11.668 18.5059C11.4922 18.541 11.2812 18.5059 11.1406 18.3652C11 18.2246 10.9648 18.0137 11 17.8027L11.5273 15.6934C11.5625 15.5176 11.668 15.3418 11.8086 15.166Z" fill="white"/>
</svg>