<svg xmlns="http://www.w3.org/2000/svg" width="18" height="14" viewBox="0 0 18 14" fill="none">
<path d="M16.3125 0.380859C17.2266 0.380859 18 1.1543 18 2.06836C18 2.63086 17.7188 3.12305 17.2969 3.43945L9.66797 9.16992C9.24609 9.48633 8.71875 9.48633 8.29688 9.16992L0.667969 3.43945C0.246094 3.12305 0 2.63086 0 2.06836C0 1.1543 0.738281 0.380859 1.6875 0.380859H16.3125ZM7.62891 10.084C8.4375 10.6816 9.52734 10.6816 10.3359 10.084L18 4.31836V11.6309C18 12.8965 16.9805 13.8809 15.75 13.8809H2.25C0.984375 13.8809 0 12.8965 0 11.6309V4.31836L7.62891 10.084Z" fill="white"/>
</svg>