<svg xmlns="http://www.w3.org/2000/svg" width="14" height="19" viewBox="0 0 14 19" fill="none">
<path d="M12.0625 2.75586H10.1641C9.67188 1.45508 8.44141 0.505859 7 0.505859C5.52344 0.505859 4.29297 1.45508 3.80078 2.75586H1.9375C0.988281 2.75586 0.25 3.5293 0.25 4.44336V16.8184C0.25 17.7676 0.988281 18.5059 1.9375 18.5059H12.0625C12.9766 18.5059 13.75 17.7676 13.75 16.8184V4.44336C13.75 3.5293 12.9766 2.75586 12.0625 2.75586ZM7 2.75586C7.59766 2.75586 8.125 3.2832 8.125 3.88086C8.125 4.51367 7.59766 5.00586 7 5.00586C6.36719 5.00586 5.875 4.51367 5.875 3.88086C5.875 3.2832 6.36719 2.75586 7 2.75586ZM7 7.25586C8.23047 7.25586 9.25 8.27539 9.25 9.50586C9.25 10.7715 8.23047 11.7559 7 11.7559C5.73438 11.7559 4.75 10.7715 4.75 9.50586C4.75 8.27539 5.73438 7.25586 7 7.25586ZM10.375 16.2559H3.625C3.30859 16.2559 3.0625 16.0098 3.0625 15.6934C3.0625 14.1465 4.29297 12.8809 5.875 12.8809H8.125C9.67188 12.8809 10.9375 14.1465 10.9375 15.6934C10.9375 16.0098 10.6562 16.2559 10.375 16.2559Z" fill="white"/>
</svg>