<svg xmlns="http://www.w3.org/2000/svg" width="19" height="18" viewBox="0 0 19 18" fill="none">
<path d="M17.6836 0.978027C17.1445 0.394043 16.2012 0.394043 15.6621 0.978027L1.28711 15.353C0.703125 15.8921 0.703125 16.8354 1.28711 17.3745C1.55664 17.644 1.91602 17.7788 2.32031 17.7788C2.67969 17.7788 3.03906 17.644 3.30859 17.3745L17.6836 2.99951C18.2676 2.46045 18.2676 1.51709 17.6836 0.978027ZM3.75781 6.27881C5.33008 6.27881 6.63281 5.021 6.63281 3.40381C6.63281 1.83154 5.33008 0.57373 3.75781 0.57373C2.14062 0.57373 0.882812 1.83154 0.882812 3.40381C0.882812 5.021 2.14062 6.27881 3.75781 6.27881ZM15.2578 12.0288C13.6406 12.0288 12.3828 13.3315 12.3828 14.9038C12.3828 16.521 13.6406 17.7788 15.2578 17.7788C16.8301 17.7788 18.1328 16.521 18.1328 14.9038C18.1328 13.3315 16.8301 12.0288 15.2578 12.0288Z" fill="#CB2C2C"/>
</svg>