<svg xmlns="http://www.w3.org/2000/svg" width="13" height="13" viewBox="0 0 13 13" fill="none">
<path d="M12.6562 6.875C12.6562 7.40234 12.2168 7.8418 11.7188 7.8418H7.5V12.0605C7.5 12.5586 7.06055 12.9688 6.5625 12.9688C6.03516 12.9688 5.625 12.5586 5.625 12.0605V7.8418H1.40625C0.878906 7.8418 0.46875 7.40234 0.46875 6.875C0.46875 6.37695 0.878906 5.9668 1.40625 5.9668H5.625V1.74805C5.625 1.2207 6.03516 0.78125 6.5625 0.78125C7.06055 0.78125 7.5 1.2207 7.5 1.74805V5.9668H11.7188C12.2168 5.9375 12.6562 6.37695 12.6562 6.875Z" fill="white"/>
</svg>