<svg xmlns="http://www.w3.org/2000/svg" width="16" height="19" viewBox="0 0 16 19" fill="none">
<path d="M3.5 1.4519C3.5 0.854248 3.99219 0.326904 4.625 0.326904C5.22266 0.326904 5.75 0.854248 5.75 1.4519V2.5769H10.25V1.4519C10.25 0.854248 10.7422 0.326904 11.375 0.326904C11.9727 0.326904 12.5 0.854248 12.5 1.4519V2.5769H14.1875C15.1016 2.5769 15.875 3.35034 15.875 4.2644V5.9519H0.125V4.2644C0.125 3.35034 0.863281 2.5769 1.8125 2.5769H3.5V1.4519ZM15.875 16.6394C15.875 17.5886 15.1016 18.3269 14.1875 18.3269H1.8125C0.863281 18.3269 0.125 17.5886 0.125 16.6394V7.0769H15.875V16.6394ZM7.15625 9.8894V11.8582H5.1875C4.69531 11.8582 4.34375 12.2449 4.34375 12.7019C4.34375 13.1941 4.69531 13.5457 5.1875 13.5457H7.15625V15.5144C7.15625 16.0066 7.50781 16.3582 8 16.3582C8.45703 16.3582 8.84375 16.0066 8.84375 15.5144V13.5457H10.8125C11.2695 13.5457 11.6562 13.1941 11.6562 12.7019C11.6562 12.2449 11.2695 11.8582 10.8125 11.8582H8.84375V9.8894C8.84375 9.43237 8.45703 9.04565 8 9.04565C7.50781 9.04565 7.15625 9.43237 7.15625 9.8894Z" fill="#DDDDDD"/>
</svg>