<svg xmlns="http://www.w3.org/2000/svg" width="19" height="16" viewBox="0 0 19 16" fill="none">
<path d="M16.875 4.43457H13.125V8.18457C13.125 9.7373 11.8359 10.9971 10.3125 10.9971H7.5V11.9346C7.5 12.9893 8.32031 13.8096 9.3457 13.8096H13.0078L15.4395 15.626C15.6445 15.7725 15.9375 15.6553 15.9375 15.4209V13.8096H16.875C17.9004 13.8096 18.75 12.9893 18.75 11.9639V6.30957C18.75 5.28418 17.9004 4.43457 16.875 4.43457ZM12.1875 8.18457V2.55957C12.1875 1.53418 11.3379 0.68457 10.3125 0.68457H1.875C0.820312 0.68457 0 1.53418 0 2.55957V8.18457C0 9.23926 0.820312 10.0596 1.875 10.0596L2.8125 10.0889V11.6709C2.8125 11.9053 3.07617 12.0225 3.25195 11.9053L5.68359 10.0889L10.3125 10.0596C11.3379 10.0596 12.1875 9.23926 12.1875 8.18457ZM6.09375 8.56543C5.68359 8.56543 5.39062 8.24316 5.39062 7.83301C5.39062 7.45215 5.68359 7.12988 6.09375 7.12988C6.50391 7.12988 6.79688 7.45215 6.79688 7.83301C6.79688 8.24316 6.50391 8.56543 6.09375 8.56543ZM7.64648 5.34277L6.5918 5.9873V6.0166C6.5918 6.30957 6.35742 6.57324 6.06445 6.57324C5.77148 6.57324 5.56641 6.30957 5.56641 6.0166V5.66504C5.56641 5.48926 5.6543 5.31348 5.83008 5.19629L7.08984 4.43457C7.26562 4.34668 7.35352 4.2002 7.35352 4.02441C7.35352 3.73145 7.11914 3.52637 6.85547 3.52637H5.68359C5.41992 3.52637 5.18555 3.73145 5.18555 4.02441C5.18555 4.28809 4.95117 4.55176 4.6582 4.55176C4.36523 4.55176 4.13086 4.28809 4.13086 4.02441C4.13086 3.14551 4.80469 2.44238 5.68359 2.44238H6.85547C7.73438 2.44238 8.4375 3.14551 8.4375 4.02441C8.4375 4.55176 8.14453 5.0498 7.64648 5.34277Z" fill="#666666"/>
</svg>