<svg xmlns="http://www.w3.org/2000/svg" width="16" height="14" viewBox="0 0 16 14" fill="none">
<path d="M15.2767 7.86621L9.96423 13.1787C9.76501 13.3779 9.49939 13.4775 9.23376 13.4775C8.93494 13.4775 8.66931 13.3779 8.47009 13.1787C8.03845 12.7803 8.03845 12.083 8.47009 11.6846L11.9564 8.16504H1.79626C1.19861 8.16504 0.733765 7.7002 0.733765 7.10254C0.733765 6.53809 1.19861 6.04004 1.79626 6.04004H11.9564L8.47009 2.55371C8.03845 2.15527 8.03845 1.45801 8.47009 1.05957C8.86853 0.62793 9.5658 0.62793 9.96423 1.05957L15.2767 6.37207C15.7084 6.77051 15.7084 7.46777 15.2767 7.86621Z" fill="#FF4646"/>
</svg>