<svg xmlns="http://www.w3.org/2000/svg" width="18" height="19" viewBox="0 0 18 19" fill="none">
<path d="M16.8047 12.0273L11.8125 9.25L16.8047 6.50781C17.2266 6.29688 17.3672 5.76953 17.1211 5.34766L16.418 4.1875C16.207 3.76562 15.6797 3.625 15.2578 3.87109L10.4062 6.82422L10.5117 1.12891C10.5117 0.671875 10.125 0.25 9.66797 0.25H8.29688C7.83984 0.25 7.45312 0.671875 7.45312 1.12891L7.59375 6.82422L2.70703 3.87109C2.28516 3.625 1.75781 3.76562 1.54688 4.1875L0.84375 5.34766C0.597656 5.76953 0.738281 6.29688 1.16016 6.50781L6.1875 9.25L1.16016 12.0273C0.738281 12.2383 0.597656 12.7656 0.84375 13.1875L1.54688 14.3477C1.75781 14.7695 2.28516 14.9102 2.70703 14.6641L7.59375 11.7109L7.45312 17.4062C7.45312 17.8633 7.83984 18.25 8.29688 18.25H9.66797C10.125 18.25 10.5117 17.8633 10.5117 17.4062L10.4062 11.7109L15.2578 14.6641C15.6797 14.9102 16.207 14.7695 16.418 14.3477L17.1211 13.1875C17.3672 12.7656 17.2266 12.2383 16.8047 12.0273Z" fill="#5C5C5C"/>
</svg>