<svg xmlns="http://www.w3.org/2000/svg" width="17" height="17" viewBox="0 0 17 17" fill="none">
<path d="M14.2742 0.755859C15.5046 0.755859 16.5242 1.77539 16.5242 3.00586V14.2559C16.5242 15.5215 15.5046 16.5059 14.2742 16.5059H3.02417C1.75854 16.5059 0.77417 15.5215 0.77417 14.2559V3.00586C0.77417 1.77539 1.75854 0.755859 3.02417 0.755859H14.2742ZM9.35229 4.3418C9.35229 3.91992 9.03589 3.56836 8.61401 3.56836C8.19214 3.56836 7.84058 3.91992 7.84058 4.3418V4.9043C7.62964 4.97461 7.4187 5.00977 7.24292 5.11523C6.61011 5.39648 6.01245 5.88867 5.87183 6.66211C5.69604 7.4707 6.04761 8.20898 6.75073 8.63086C7.24292 8.94727 7.91089 9.1582 8.43823 9.29883C8.50854 9.33398 8.57886 9.33398 8.68433 9.36914C9.1062 9.47461 9.52808 9.58008 9.87964 9.82617C10.3015 10.1074 10.0906 10.6348 9.6687 10.7754C9.35229 10.916 8.89526 10.9863 8.29761 10.8809C7.87573 10.8105 7.48901 10.6699 7.06714 10.5293C6.99683 10.5293 6.89136 10.4941 6.82104 10.459C6.43433 10.3184 5.97729 10.5293 5.87183 10.9512C5.7312 11.3379 5.94214 11.7598 6.32886 11.9004C6.82104 12.0762 7.34839 12.2168 7.84058 12.3223V12.9551C7.84058 13.377 8.19214 13.6934 8.61401 13.6934C9.03589 13.6934 9.35229 13.377 9.35229 12.9551V12.4277C9.6687 12.3926 9.98511 12.3223 10.2664 12.1816C10.8992 11.9355 11.4617 11.4082 11.6023 10.6348C11.7429 9.82617 11.4265 9.05273 10.7585 8.5957C10.2312 8.20898 9.52808 8.0332 8.96558 7.85742C8.89526 7.85742 8.82495 7.82227 8.71948 7.78711C8.33276 7.68164 7.91089 7.57617 7.55933 7.36523C7.13745 7.08398 7.45386 6.66211 7.84058 6.48633C8.26245 6.31055 8.78979 6.27539 9.28198 6.3457C9.52808 6.41602 9.77417 6.48633 10.0203 6.55664C10.0554 6.55664 10.1257 6.5918 10.1609 6.5918C10.5828 6.69727 11.0046 6.48633 11.1101 6.06445C11.2156 5.67773 10.9695 5.25586 10.5828 5.11523C10.5125 5.11523 10.4421 5.08008 10.3718 5.08008C10.0554 4.97461 9.70386 4.86914 9.35229 4.83398V4.3418Z" fill="white"/>
</svg>