<svg xmlns="http://www.w3.org/2000/svg" width="15" height="15" viewBox="0 0 15 15" fill="none">
<path d="M14.5424 12.7441L11.808 10.0098C11.6713 9.90039 11.5072 9.81836 11.3431 9.81836H10.9056C11.6439 8.86133 12.1088 7.6582 12.1088 6.31836C12.1088 3.20117 9.53845 0.630859 6.42126 0.630859C3.27673 0.630859 0.733765 3.20117 0.733765 6.31836C0.733765 9.46289 3.27673 12.0059 6.42126 12.0059C7.73376 12.0059 8.93689 11.5684 9.92126 10.8027V11.2676C9.92126 11.4316 9.97595 11.5957 10.1127 11.7324L12.8197 14.4395C13.0931 14.7129 13.5033 14.7129 13.7494 14.4395L14.515 13.6738C14.7885 13.4277 14.7885 13.0176 14.5424 12.7441ZM6.42126 9.81836C4.47986 9.81836 2.92126 8.25977 2.92126 6.31836C2.92126 4.4043 4.47986 2.81836 6.42126 2.81836C8.33533 2.81836 9.92126 4.4043 9.92126 6.31836C9.92126 8.25977 8.33533 9.81836 6.42126 9.81836Z" fill="white"/>
</svg>