<svg xmlns="http://www.w3.org/2000/svg" width="17" height="18" viewBox="0 0 17 18" fill="none">
<path d="M16.4355 5.67285C16.5684 5.97168 16.4688 6.27051 16.2363 6.50293L14.8086 7.79785C14.8418 8.06348 14.875 8.3623 14.875 8.62793C14.875 8.92676 14.8418 9.22559 14.8086 9.49121L16.2363 10.7861C16.4688 11.0186 16.5684 11.3174 16.4355 11.6162C16.3027 12.0146 16.1367 12.3799 15.9375 12.7451L15.7715 13.0107C15.5391 13.376 15.3066 13.7412 15.041 14.0732C14.8418 14.3057 14.5098 14.3721 14.2109 14.2725L12.3848 13.708C11.9199 14.04 11.4219 14.3057 10.9238 14.5381L10.4922 16.4307C10.4258 16.7295 10.1934 16.9619 9.89453 17.0283C9.42969 17.0947 8.96484 17.1279 8.4668 17.1279C8.00195 17.1279 7.53711 17.0947 7.07227 17.0283C6.77344 16.9619 6.54102 16.7295 6.47461 16.4307L6.04297 14.5381C5.54492 14.3057 5.04688 14.04 4.58203 13.708L2.75586 14.2725C2.45703 14.3721 2.125 14.3057 1.92578 14.0732C1.66016 13.7412 1.42773 13.376 1.19531 13.0107L1.0293 12.7451C0.830078 12.3799 0.664062 12.0146 0.53125 11.6162C0.398438 11.3174 0.498047 11.0186 0.730469 10.7861L2.1582 9.49121C2.125 9.22559 2.125 8.92676 2.125 8.62793C2.125 8.3623 2.125 8.06348 2.1582 7.79785L0.730469 6.50293C0.498047 6.27051 0.398438 5.97168 0.53125 5.67285C0.664062 5.27441 0.830078 4.90918 1.0293 4.54395L1.19531 4.27832C1.42773 3.91309 1.66016 3.54785 1.92578 3.21582C2.125 2.9834 2.45703 2.91699 2.75586 3.0166L4.58203 3.58105C5.04688 3.24902 5.54492 2.9502 6.04297 2.75098L6.47461 0.858398C6.54102 0.55957 6.77344 0.327148 7.07227 0.260742C7.53711 0.194336 8.00195 0.12793 8.5 0.12793C8.96484 0.12793 9.42969 0.194336 9.89453 0.260742C10.1934 0.327148 10.4258 0.55957 10.4922 0.858398L10.9238 2.75098C11.4219 2.9502 11.9199 3.24902 12.3848 3.58105L14.2109 3.0166C14.5098 2.91699 14.8418 2.9834 15.041 3.21582C15.3066 3.54785 15.5391 3.91309 15.7715 4.27832L15.9375 4.54395C16.1367 4.90918 16.3027 5.27441 16.4355 5.67285ZM8.5 11.2842C9.96094 11.2842 11.1562 10.1221 11.1562 8.62793C11.1562 7.16699 9.96094 5.97168 8.5 5.97168C7.00586 5.97168 5.84375 7.16699 5.84375 8.62793C5.84375 10.1221 7.00586 11.2842 8.5 11.2842Z" fill="#333333"/>
</svg>