<svg xmlns="http://www.w3.org/2000/svg" width="53" height="12" viewBox="0 0 53 12" fill="none">
<path d="M12.1111 3.04517C12.1111 4.39087 11.0193 5.48267 9.67358 5.48267C9.01343 5.48267 8.40405 5.22876 7.97241 4.82251L5.58569 6.01587C5.58569 6.09204 5.58569 6.1936 5.58569 6.29517C5.58569 6.39673 5.58569 6.49829 5.58569 6.59985L7.97241 7.79321C8.40405 7.38696 9.01343 7.10767 9.67358 7.10767C11.0193 7.10767 12.1111 8.19946 12.1111 9.54517C12.1111 10.8909 11.0193 11.9827 9.67358 11.9827C8.30249 11.9827 7.23608 10.8909 7.23608 9.54517C7.23608 9.4436 7.23608 9.34204 7.23608 9.26587L4.84937 8.07251C4.41772 8.47876 3.80835 8.73267 3.17358 8.73267C1.80249 8.73267 0.736084 7.64087 0.736084 6.29517C0.736084 4.94946 1.80249 3.85767 3.17358 3.85767C3.80835 3.85767 4.41772 4.13696 4.84937 4.54321L7.23608 3.34985C7.23608 3.24829 7.23608 3.14673 7.23608 3.04517C7.23608 1.69946 8.30249 0.607666 9.67358 0.607666C11.0193 0.607666 12.1111 1.69946 12.1111 3.04517ZM3.14819 7.10767C3.60522 7.10767 3.96069 6.7522 3.96069 6.29517C3.96069 5.86353 3.60522 5.48267 3.14819 5.48267C2.71655 5.48267 2.33569 5.86353 2.33569 6.29517C2.33569 6.7522 2.71655 7.10767 3.14819 7.10767ZM9.67358 2.23267C9.21655 2.23267 8.86108 2.61353 8.86108 3.04517C8.86108 3.5022 9.21655 3.85767 9.67358 3.85767C10.1052 3.85767 10.4861 3.5022 10.4861 3.04517C10.4861 2.61353 10.1052 2.23267 9.67358 2.23267ZM9.67358 10.3577C10.1052 10.3577 10.4861 10.0022 10.4861 9.54517C10.4861 9.11353 10.1052 8.73267 9.67358 8.73267C9.21655 8.73267 8.86108 9.11353 8.86108 9.54517C8.86108 10.0022 9.21655 10.3577 9.67358 10.3577ZM17.7661 9.94817C18.5851 10.7672 19.7811 11.3262 21.4451 11.3262C23.7851 11.3262 24.9161 10.1302 24.9161 8.54417C24.9161 6.62017 23.0961 6.19117 21.6661 5.86617C20.6651 5.63217 19.9371 5.45017 19.9371 4.86517C19.9371 4.34517 20.3791 3.98117 21.2111 3.98117C22.0561 3.98117 22.9921 4.28017 23.6941 4.93017L24.7211 3.57817C23.8631 2.78517 22.7191 2.36917 21.3411 2.36917C19.3001 2.36917 18.0521 3.53917 18.0521 4.98217C18.0521 6.91917 19.8721 7.30917 21.2891 7.63417C22.2901 7.86817 23.0441 8.08917 23.0441 8.73917C23.0441 9.23317 22.5501 9.71417 21.5361 9.71417C20.3401 9.71417 19.3911 9.18117 18.7801 8.54417L17.7661 9.94817ZM32.282 11.1702V6.71117C32.282 5.48917 31.619 4.73517 30.241 4.73517C29.214 4.73517 28.434 5.22917 28.031 5.71017V2.49917H26.38V11.1702H28.031V6.94517C28.317 6.56817 28.824 6.20417 29.461 6.20417C30.176 6.20417 30.631 6.47717 30.631 7.34817V11.1702H32.282ZM39.602 11.1702V7.11417C39.602 5.30717 38.289 4.73517 36.859 4.73517C35.871 4.73517 34.883 5.04717 34.116 5.72317L34.74 6.82817C35.273 6.33417 35.897 6.08717 36.573 6.08717C37.405 6.08717 37.951 6.50317 37.951 7.14017V8.01117C37.535 7.50417 36.794 7.24417 35.962 7.24417C34.961 7.24417 33.778 7.77717 33.778 9.24617C33.778 10.6502 34.961 11.3262 35.962 11.3262C36.781 11.3262 37.522 11.0272 37.951 10.5202V11.1702H39.602ZM37.951 9.66217C37.678 10.0262 37.158 10.2082 36.625 10.2082C35.975 10.2082 35.442 9.87017 35.442 9.28517C35.442 8.68717 35.975 8.33617 36.625 8.33617C37.158 8.33617 37.678 8.51817 37.951 8.88217V9.66217ZM43.1506 11.1702V7.02317C43.4236 6.62017 44.1516 6.32117 44.6976 6.32117C44.8796 6.32117 45.0356 6.33417 45.1526 6.36017V4.74817C44.3726 4.74817 43.5926 5.19017 43.1506 5.74917V4.89117H41.4996V11.1702H43.1506ZM46.0412 8.02417C46.0412 10.0392 47.4842 11.3262 49.3952 11.3262C50.3702 11.3262 51.3452 11.0402 51.9822 10.4552L51.2542 9.38917C50.8512 9.77917 50.1622 10.0132 49.5772 10.0132C48.5112 10.0132 47.8742 9.35017 47.7702 8.55717H52.4372V8.19317C52.4372 6.13917 51.1632 4.73517 49.2912 4.73517C47.3802 4.73517 46.0412 6.20417 46.0412 8.02417ZM49.2912 6.04817C50.3832 6.04817 50.7992 6.84117 50.8382 7.43917H47.7442C47.8222 6.81517 48.2642 6.04817 49.2912 6.04817Z" fill="#333333"/>
</svg>