<svg xmlns="http://www.w3.org/2000/svg" width="15" height="14" viewBox="0 0 15 14" fill="none">
<path d="M9.75 0.679687C9.375 1.08594 9.4375 1.74219 9.8125 2.08594L10.9375 3.11719L1.5 3.11719C0.9375 3.11719 0.5 3.55469 0.5 4.11719C0.5 4.64844 0.9375 5.11719 1.5 5.11719L10.9375 5.11719L9.8125 6.11719C9.40625 6.49219 9.375 7.11719 9.75 7.52344C10.125 7.92969 10.75 7.96094 11.1562 7.58594L14.1875 4.83594C14.5937 4.46094 14.5937 3.74219 14.1875 3.36719L11.1562 0.648437C10.75 0.242187 10.125 0.273437 9.75 0.679687ZM5.21875 6.67969C4.84375 6.27344 4.21875 6.24219 3.8125 6.61719L0.78125 9.33594C0.375 9.71094 0.375 10.4297 0.78125 10.8047L3.8125 13.5234C4.21875 13.8984 4.84375 13.8672 5.21875 13.4609C5.59375 13.0547 5.53125 12.4297 5.15625 12.0547L4.03125 11.1172L13.4687 11.1172C14.0312 11.1172 14.5 10.6484 14.5 10.1172C14.5 9.55469 14.0312 9.11719 13.4687 9.11719L4.03125 9.11719L5.15625 8.08594C5.5625 7.71094 5.59375 7.08594 5.21875 6.67969Z" fill="#A8A8A8"/>
</svg>