<svg xmlns="http://www.w3.org/2000/svg" width="16" height="22" viewBox="0 0 16 22" fill="none">
<path d="M12.8179 12.0439H3.23584C1.38818 12.0439 0.442871 14.2783 1.7749 15.5674L6.5874 20.3799C7.36084 21.1963 8.69287 21.1963 9.50928 20.3799L14.2788 15.5674C15.5679 14.2783 14.6655 12.0439 12.8179 12.0439ZM8.04834 18.9189L3.23584 14.1064H12.8608L8.04834 18.9189ZM3.23584 9.29395H12.8179C14.6655 9.29395 15.6108 7.05957 14.2788 5.77051L9.46631 1.00098C8.69287 0.18457 7.36084 0.18457 6.5874 1.00098L1.7749 5.81348C0.48584 7.10254 1.38818 9.29395 3.23584 9.29395ZM8.04834 2.41895L12.8179 7.23145H3.23584L8.04834 2.41895Z" fill="white"/>
</svg>