<svg xmlns="http://www.w3.org/2000/svg" width="14" height="19" viewBox="0 0 14 19" fill="none">
<path d="M12.9062 2.5C13.3633 2.5 13.75 2.14844 13.75 1.65625V1.09375C13.75 0.636719 13.3633 0.25 12.9062 0.25H1.09375C0.601562 0.25 0.25 0.636719 0.25 1.09375V1.65625C0.25 2.14844 0.601562 2.5 1.09375 2.5C1.09375 5.69922 2.88672 8.40625 5.3125 9.25C2.88672 10.1289 1.09375 12.8359 1.09375 16C0.601562 16 0.25 16.3867 0.25 16.8438V17.4062C0.25 17.8984 0.601562 18.25 1.09375 18.25H12.9062C13.3633 18.25 13.75 17.8984 13.75 17.4062V16.8438C13.75 16.3867 13.3633 16 12.9062 16C12.9062 12.8359 11.0781 10.1289 8.65234 9.25C11.0781 8.40625 12.9062 5.69922 12.9062 2.5ZM7 7.5625C4.96094 7.5625 3.34375 5.24219 3.34375 2.5H10.6562C10.6562 5.24219 9.00391 7.5625 7 7.5625Z" fill="#5C5C5C"/>
</svg>