<svg xmlns="http://www.w3.org/2000/svg" width="20" height="23" viewBox="0 0 20 23" fill="none">
<path d="M18.4688 3.50293C19.0273 3.50293 19.5 3.97559 19.5 4.53418C19.5 5.13574 19.0273 5.56543 18.4688 5.56543H17.9531L16.9219 19.5303C16.793 20.9912 15.6328 22.0654 14.1719 22.0654H5.53516C4.07422 22.0654 2.91406 20.9912 2.78516 19.5303L1.75391 5.56543H1.28125C0.679688 5.56543 0.25 5.13574 0.25 4.53418C0.25 3.97559 0.679688 3.50293 1.28125 3.50293H4.24609L5.83594 1.13965C6.26562 0.495117 7.03906 0.0654297 7.85547 0.0654297H11.8516C12.668 0.0654297 13.4414 0.495117 13.8711 1.13965L15.4609 3.50293H18.4688ZM7.85547 2.12793C7.72656 2.12793 7.59766 2.21387 7.55469 2.2998L6.73828 3.50293H12.9688L12.1523 2.2998C12.1094 2.21387 11.9805 2.12793 11.8516 2.12793H7.85547ZM15.8906 5.56543H3.81641L4.84766 19.4014C4.89062 19.7451 5.19141 20.0029 5.53516 20.0029H14.1719C14.5156 20.0029 14.8164 19.7451 14.8594 19.4014L15.8906 5.56543Z" fill="currentColor"/>
</svg>