<svg xmlns="http://www.w3.org/2000/svg" width="19" height="17" viewBox="0 0 19 17" fill="none">
<path d="M5.5 1.30762V2.30762H9.5V1.30762C9.5 0.776367 9.9375 0.307617 10.5 0.307617C11.0312 0.307617 11.5 0.776367 11.5 1.30762V2.30762H13C13.8125 2.30762 14.5 2.99512 14.5 3.80762V5.30762H0.5V3.80762C0.5 2.99512 1.15625 2.30762 2 2.30762H3.5V1.30762C3.5 0.776367 3.9375 0.307617 4.5 0.307617C5.03125 0.307617 5.5 0.776367 5.5 1.30762ZM0.5 6.30762H14.5V7.68262L9.53125 12.6514C9.28125 12.9014 9.09375 13.2139 9 13.5889L8.53125 15.4639C8.46875 15.7451 8.46875 16.0576 8.5625 16.3076H2C1.15625 16.3076 0.5 15.6514 0.5 14.8076V6.30762ZM4.25 8.80762C3.8125 8.80762 3.5 9.15137 3.5 9.55762C3.5 9.99512 3.8125 10.3076 4.25 10.3076H8.75C9.15625 10.3076 9.5 9.99512 9.5 9.55762C9.5 9.15137 9.15625 8.80762 8.75 8.80762H4.25ZM4.25 13.3076H6.75C7.15625 13.3076 7.5 12.9951 7.5 12.5576C7.5 12.1514 7.15625 11.8076 6.75 11.8076H4.25C3.8125 11.8076 3.5 12.1514 3.5 12.5576C3.5 12.9951 3.8125 13.3076 4.25 13.3076ZM18.125 8.15137C18.5938 8.62012 18.5938 9.40137 18.125 9.90137L17.1875 10.8389L14.9688 8.62012L15.9062 7.68262C16.375 7.21387 17.1875 7.21387 17.6562 7.68262L18.125 8.15137ZM10.2188 13.3389L14.2812 9.30762L16.5 11.5264L12.4375 15.5576C12.3125 15.6826 12.1562 15.7764 12 15.8389L10.0938 16.3076C9.9375 16.3389 9.75 16.3076 9.625 16.1826C9.5 16.0576 9.46875 15.8701 9.5 15.6826L9.96875 13.8076C10 13.6514 10.0938 13.4951 10.2188 13.3389Z" fill="#A8A8A8"/>
</svg>