<svg xmlns="http://www.w3.org/2000/svg" width="17" height="17" viewBox="0 0 17 17" fill="none">
<path d="M8.34741 0.931641C3.90991 0.931641 0.347412 4.52539 0.347412 8.93164C0.347412 13.3691 3.90991 16.9316 8.34741 16.9316C12.7537 16.9316 16.3474 13.3691 16.3474 8.93164C16.3474 4.52539 12.7537 0.931641 8.34741 0.931641ZM8.34741 4.93164C9.56616 4.93164 10.5974 5.96289 10.5974 7.18164C10.5974 8.43164 9.56616 9.43164 8.34741 9.43164C7.09741 9.43164 6.09741 8.43164 6.09741 7.18164C6.09741 5.96289 7.09741 4.93164 8.34741 4.93164ZM8.34741 14.9316C6.69116 14.9316 5.19116 14.2754 4.09741 13.1816C4.59741 11.8691 5.84741 10.9316 7.34741 10.9316H9.34741C10.8162 10.9316 12.0662 11.8691 12.5662 13.1816C11.4724 14.2754 9.97241 14.9316 8.34741 14.9316Z" fill="#A8A8A8"/>
</svg>