<svg xmlns="http://www.w3.org/2000/svg" width="29" height="33" viewBox="0 0 29 33" fill="none">
<path d="M12.3164 12.7148H18.3164C18.8164 12.7148 19.2539 12.2773 19.2539 11.7148V9.71484C19.2539 9.21484 18.7539 8.71484 18.2539 8.71484H16.0664L19.6289 5.15234C20.0664 4.77734 20.3164 4.27734 20.3164 3.71484V2.71484C20.3164 1.65234 19.3789 0.714844 18.3164 0.714844H11.8164C11.2539 0.714844 10.8164 1.21484 10.8164 1.71484V3.71484C10.8164 4.27734 11.2539 4.71484 11.8164 4.71484H14.4414L10.8789 8.33984C10.5039 8.71484 10.3164 9.21484 10.3164 9.71484V10.7148C10.3164 11.8398 11.1914 12.7148 12.3164 12.7148ZM12.3164 14.7148H2.75391C1.94141 14.7148 1.25391 15.4023 1.25391 16.2148L1.31641 19.2148C1.31641 20.0898 1.94141 20.7148 2.81641 20.7148H5.94141L0.816406 26.5273C0.441406 26.9023 0.316406 27.4023 0.316406 27.8398V30.7148C0.316406 31.8398 1.19141 32.7148 2.31641 32.7148H11.7539C12.5664 32.7148 13.2539 32.0898 13.2539 31.2148L13.3164 28.2148C13.3164 27.4023 12.6289 26.7148 11.8164 26.7148H8.62891L13.7539 20.9648C14.1289 20.5898 14.3164 20.0898 14.3164 19.6523V16.7148C14.3164 15.6523 13.3789 14.7148 12.3164 14.7148ZM28.3164 17.7148V16.7148C28.3164 15.6523 27.3789 14.7148 26.3164 14.7148H20.3164C19.7539 14.7148 19.3164 15.2148 19.3164 15.7148V17.7148C19.2539 18.2773 19.7539 18.7148 20.3164 18.7148H22.4414L18.8789 22.3398C18.5039 22.7148 18.3164 23.2148 18.3164 23.7148V24.7148C18.3164 25.8398 19.1914 26.7148 20.3164 26.7148H26.8164C27.3164 26.7148 27.8164 26.2773 27.8164 25.7148V23.7148C27.8164 23.2148 27.3164 22.7148 26.8164 22.7148H24.1289L27.6914 19.1523C28.0664 18.7773 28.3164 18.2773 28.3164 17.7148Z" fill="#AFAFAF"/>
</svg>